# xmcd
#
# Track frame offsets: 
#        182
#        24635
#        47660
#        70080
#        94460
#        117332
#        139532
#        163907
#
# Disc length: 2499 seconds
#
# Revision: 3
# Processed by: cddbd v1.5.2PL0 Copyright (c) Steve Scherf et al.
# Submitted via: ExactAudioCopyFreeDBPlugin 1.0
#
DISCID=6d09c108
DTITLE=Anthony  Cruz - Para Ti
DYEAR=1993
DGENRE=Salsa
TTITLE0=Dile a El
TTITLE1=Atraccion Fatal
TTITLE2=Me Gusta
TTITLE3=Te Juro Que Aprendi
TTITLE4=Juntos
TTITLE5=A Que Saben Tus Besos
TTITLE6=Sin Ti
TTITLE7=Ya Lo Ves
EXTD=
EXTT0=
EXTT1=
EXTT2=
EXTT3=
EXTT4=
EXTT5=
EXTT6=
EXTT7=
PLAYORDER=
